<svg xmlns="http://www.w3.org/2000/svg" viewBox="0 0 1920 828"><defs><style>.cls-1{fill:#eaeaea;}.cls-2{fill:#e2e2e2;}</style></defs><g id="レイヤー_2" data-name="レイヤー 2"><g id="レイヤー_1-2" data-name="レイヤー 1"><g id="グループ_8" data-name="グループ 8"><rect id="長方形_20" data-name="長方形 20" class="cls-1" width="1920" height="828"/><g id="グループ_4" data-name="グループ 4"><path id="パス_4" data-name="パス 4" class="cls-2" d="M1078.26,707.69h0c0,3.25-3.31,5.88-7.38,5.88h-44.32c-4.08,0-7.38,2.64-7.38,5.88h0c0,3.25,3.3,5.89,7.38,5.89h0c4.08,0,7.39,2.63,7.39,5.88h0c0,3.25-3.31,5.88-7.39,5.88H982.25c-4.08,0-7.38-2.63-7.38-5.88h0c0-3.25,3.3-5.88,7.38-5.88H997c4.08,0,7.39-2.64,7.39-5.89h0c0-3.24-3.31-5.88-7.39-5.88h0c-4.08,0-7.38-2.63-7.38-5.88h0c0-3.25,3.3-5.88,7.38-5.88h73.85C1075,701.81,1078.26,704.44,1078.26,707.69Z"/><path id="パス_11" data-name="パス 11" class="cls-2" d="M403.26,616.69h0c0,3.25-3.31,5.88-7.38,5.88H351.56c-4.08,0-7.38,2.64-7.38,5.88h0c0,3.25,3.3,5.89,7.38,5.89h0c4.08,0,7.39,2.63,7.39,5.88h0c0,3.25-3.31,5.88-7.39,5.88H307.25c-4.08,0-7.38-2.63-7.38-5.88h0c0-3.25,3.3-5.88,7.38-5.88H322c4.08,0,7.39-2.64,7.39-5.89h0c0-3.24-3.31-5.88-7.39-5.88h0c-4.08,0-7.38-2.63-7.38-5.88h0c0-3.25,3.3-5.88,7.38-5.88h73.85C400,610.81,403.26,613.44,403.26,616.69Z"/><path id="パス_8" data-name="パス 8" class="cls-2" d="M1576.26,598.69h0c0,3.25-3.31,5.88-7.38,5.88h-44.32c-4.08,0-7.38,2.64-7.38,5.88h0c0,3.25,3.3,5.89,7.38,5.89h0c4.08,0,7.39,2.63,7.39,5.88h0c0,3.25-3.31,5.88-7.39,5.88h-44.31c-4.08,0-7.38-2.63-7.38-5.88h0c0-3.25,3.3-5.88,7.38-5.88H1495c4.08,0,7.39-2.64,7.39-5.89h0c0-3.24-3.31-5.88-7.39-5.88h0c-4.08,0-7.38-2.63-7.38-5.88h0c0-3.25,3.3-5.88,7.38-5.88h73.85C1573,592.81,1576.26,595.44,1576.26,598.69Z"/><path id="パス_7" data-name="パス 7" class="cls-2" d="M836.26,563.69h0c0,3.25-3.3,5.88-7.38,5.88H784.56c-4.08,0-7.38,2.64-7.38,5.88h0c0,3.25,3.3,5.89,7.38,5.89h0c4.08,0,7.39,2.63,7.39,5.88h0c0,3.25-3.31,5.88-7.39,5.88H740.25c-4.08,0-7.38-2.63-7.38-5.88h0c0-3.25,3.3-5.88,7.38-5.88H755c4.08,0,7.39-2.64,7.39-5.89h0c0-3.24-3.31-5.88-7.39-5.88h0c-4.08,0-7.38-2.63-7.38-5.88h0c0-3.25,3.3-5.88,7.38-5.88h73.85C833,557.81,836.26,560.44,836.26,563.69Z"/><path id="パス_5" data-name="パス 5" class="cls-2" d="M1399.93,528h-73.85c-4.08,0-7.39,2.63-7.39,5.88s3.31,5.88,7.39,5.88h0c4.08,0,7.38,2.63,7.38,5.88h0c0,3.25-3.3,5.88-7.38,5.88H1309c-4.08,0-7.38,2.64-7.38,5.89h0c0,3.24,3.3,5.88,7.38,5.88h0c4.08,0,7.39,2.63,7.39,5.88S1313.09,575,1309,575H1262.7c-4.08,0-7.39-2.63-7.39-5.88h0c0-3.25,3.31-5.88,7.39-5.88h14.77c4.08,0,7.39-2.64,7.39-5.88s-3.31-5.89-7.39-5.89h-44.31c-4.08,0-7.39,2.64-7.39,5.89s3.31,5.88,7.39,5.88,7.38,2.63,7.38,5.88h0c0,3.25-3.3,5.88-7.38,5.88h-14.77c-4.08,0-7.39,2.64-7.39,5.88h0c0,3.25,3.31,5.89,7.39,5.89h65.29a9.36,9.36,0,0,0,1.18.08h0c4.08,0,7.39,2.63,7.39,5.88h0c0,3.25-3.31,5.88-7.39,5.88h-29.54c-4.08,0-7.39,2.64-7.39,5.88h0c0,3.25,3.31,5.89,7.39,5.89h73.86c4.08,0,7.38-2.64,7.38-5.89h0c0-3.24-3.3-5.88-7.38-5.88h-14.77c-4.08,0-7.39-2.63-7.39-5.88h0c0-3.25,3.31-5.88,7.39-5.88a9.36,9.36,0,0,0,1.18-.08h23c4.08,0,7.38-2.64,7.38-5.89h0c0-3.24-3.3-5.88-7.38-5.88h0c-4.08,0-7.39-2.63-7.39-5.88s3.31-5.88,7.39-5.88h17.06c4.08,0,7.39-2.64,7.39-5.88s-3.31-5.89-7.39-5.89h0c-4.08,0-7.38-2.63-7.38-5.88h0c0-3.25,3.3-5.88,7.38-5.88h44.31c4.08,0,7.38-2.63,7.38-5.88S1404,528,1399.93,528Z"/><path id="パス_10" data-name="パス 10" class="cls-2" d="M214.93,511H141.08c-4.08,0-7.39,2.63-7.39,5.88s3.31,5.88,7.39,5.88h0c4.08,0,7.38,2.63,7.38,5.88h0c0,3.25-3.3,5.88-7.38,5.88H124c-4.07,0-7.38,2.64-7.38,5.89h0c0,3.24,3.3,5.88,7.38,5.88h0c4.08,0,7.39,2.63,7.39,5.88S128.09,558,124,558H77.7c-4.08,0-7.39-2.63-7.39-5.88h0c0-3.25,3.31-5.88,7.39-5.88H92.47c4.08,0,7.39-2.64,7.39-5.88s-3.31-5.89-7.39-5.89H48.16c-4.08,0-7.39,2.64-7.39,5.89s3.31,5.88,7.39,5.88,7.38,2.63,7.38,5.88h0c0,3.25-3.3,5.88-7.38,5.88H33.39c-4.08,0-7.39,2.64-7.39,5.88h0c0,3.25,3.31,5.89,7.39,5.89H98.68a9.36,9.36,0,0,0,1.18.08h0c4.08,0,7.39,2.63,7.39,5.88h0c0,3.25-3.31,5.88-7.39,5.88H70.32c-4.08,0-7.39,2.64-7.39,5.88h0c0,3.25,3.31,5.89,7.39,5.89h73.86c4.08,0,7.38-2.64,7.38-5.89h0c0-3.24-3.3-5.88-7.38-5.88H129.41c-4.08,0-7.39-2.63-7.39-5.88h0c0-3.25,3.31-5.88,7.39-5.88a9.36,9.36,0,0,0,1.18-.08h23c4.08,0,7.38-2.64,7.38-5.89h0c0-3.24-3.3-5.88-7.38-5.88h0c-4.08,0-7.39-2.63-7.39-5.88s3.31-5.88,7.39-5.88h17.06c4.08,0,7.39-2.64,7.39-5.88s-3.31-5.89-7.39-5.89h0c-4.08,0-7.38-2.63-7.38-5.88h0c0-3.25,3.3-5.88,7.38-5.88h44.31c4.08,0,7.38-2.63,7.38-5.88S219,511,214.93,511Z"/><path id="パス_9" data-name="パス 9" class="cls-2" d="M1886.93,661h-73.85c-4.08,0-7.39,2.63-7.39,5.88s3.31,5.88,7.39,5.88h0c4.08,0,7.38,2.63,7.38,5.88h0c0,3.25-3.3,5.88-7.38,5.88H1796c-4.08,0-7.38,2.64-7.38,5.89h0c0,3.24,3.3,5.88,7.38,5.88h0c4.08,0,7.39,2.63,7.39,5.88S1800.09,708,1796,708H1749.7c-4.08,0-7.39-2.63-7.39-5.88h0c0-3.25,3.31-5.88,7.39-5.88h14.77c4.08,0,7.39-2.64,7.39-5.88s-3.31-5.89-7.39-5.89h-44.31c-4.08,0-7.39,2.64-7.39,5.89s3.31,5.88,7.39,5.88,7.38,2.63,7.38,5.88h0c0,3.25-3.3,5.88-7.38,5.88h-14.77c-4.08,0-7.39,2.64-7.39,5.88h0c0,3.25,3.31,5.89,7.39,5.89h65.29a9.36,9.36,0,0,0,1.18.08h0c4.08,0,7.39,2.63,7.39,5.88h0c0,3.25-3.31,5.88-7.39,5.88h-29.54c-4.08,0-7.39,2.64-7.39,5.88h0c0,3.25,3.31,5.89,7.39,5.89h73.86c4.08,0,7.38-2.64,7.38-5.89h0c0-3.24-3.3-5.88-7.38-5.88h-14.77c-4.08,0-7.39-2.63-7.39-5.88h0c0-3.25,3.31-5.88,7.39-5.88a9.36,9.36,0,0,0,1.18-.08h23c4.08,0,7.38-2.64,7.38-5.89h0c0-3.24-3.3-5.88-7.38-5.88h0c-4.08,0-7.39-2.63-7.39-5.88s3.31-5.88,7.39-5.88h17.06c4.08,0,7.39-2.64,7.39-5.88s-3.31-5.89-7.39-5.89h0c-4.08,0-7.38-2.63-7.38-5.88h0c0-3.25,3.3-5.88,7.38-5.88h44.31c4.08,0,7.38-2.63,7.38-5.88S1891,661,1886.93,661Z"/></g><g id="グループ_7" data-name="グループ 7"><path id="パス_4-2" data-name="パス 4-2" class="cls-2" d="M1142.26,241.69h0c0,3.25-3.31,5.88-7.38,5.88h-44.32c-4.08,0-7.38,2.64-7.38,5.88h0c0,3.25,3.3,5.89,7.38,5.89h0c4.08,0,7.39,2.63,7.39,5.88h0c0,3.25-3.31,5.88-7.39,5.88h-44.31c-4.08,0-7.38-2.63-7.38-5.88h0c0-3.25,3.3-5.88,7.38-5.88H1061c4.08,0,7.39-2.64,7.39-5.89h0c0-3.24-3.31-5.88-7.39-5.88h0c-4.08,0-7.38-2.63-7.38-5.88h0c0-3.25,3.3-5.88,7.38-5.88h73.85C1139,235.81,1142.26,238.44,1142.26,241.69Z"/><path id="パス_11-2" data-name="パス 11-2" class="cls-2" d="M467.26,150.69h0c0,3.25-3.31,5.88-7.38,5.88H415.56c-4.08,0-7.38,2.64-7.38,5.88h0c0,3.25,3.3,5.89,7.38,5.89h0c4.08,0,7.39,2.63,7.39,5.88h0c0,3.25-3.31,5.88-7.39,5.88H371.25c-4.08,0-7.38-2.63-7.38-5.88h0c0-3.25,3.3-5.88,7.38-5.88H386c4.08,0,7.39-2.64,7.39-5.89h0c0-3.24-3.31-5.88-7.39-5.88h0c-4.08,0-7.38-2.63-7.38-5.88h0c0-3.25,3.3-5.88,7.38-5.88h73.85C464,144.81,467.26,147.44,467.26,150.69Z"/><path id="パス_19" data-name="パス 19" class="cls-2" d="M1500.26,759.69h0c0,3.25-3.3,5.88-7.38,5.88h-44.32c-4.08,0-7.38,2.64-7.38,5.88h0c0,3.25,3.3,5.89,7.38,5.89h0c4.08,0,7.39,2.63,7.39,5.88h0c0,3.25-3.31,5.88-7.39,5.88h-44.31c-4.08,0-7.38-2.63-7.38-5.88h0c0-3.25,3.3-5.88,7.38-5.88H1419c4.08,0,7.39-2.64,7.39-5.89h0c0-3.24-3.31-5.88-7.39-5.88h0c-4.08,0-7.38-2.63-7.38-5.88h0c0-3.25,3.3-5.88,7.38-5.88h73.85C1497,753.81,1500.26,756.44,1500.26,759.69Z"/><path id="パス_8-2" data-name="パス 8-2" class="cls-2" d="M1640.26,132.69h0c0,3.25-3.31,5.88-7.38,5.88h-44.32c-4.08,0-7.38,2.64-7.38,5.88h0c0,3.25,3.3,5.89,7.38,5.89h0c4.08,0,7.39,2.63,7.39,5.88h0c0,3.25-3.31,5.88-7.39,5.88h-44.31c-4.08,0-7.38-2.63-7.38-5.88h0c0-3.25,3.3-5.88,7.38-5.88H1559c4.08,0,7.39-2.64,7.39-5.89h0c0-3.24-3.31-5.88-7.39-5.88h0c-4.08,0-7.38-2.63-7.38-5.88h0c0-3.25,3.3-5.88,7.38-5.88h73.85C1637,126.81,1640.26,129.44,1640.26,132.69Z"/><path id="パス_7-2" data-name="パス 7-2" class="cls-2" d="M900.26,97.69h0c0,3.25-3.3,5.88-7.38,5.88H848.56c-4.08,0-7.38,2.64-7.38,5.88h0c0,3.25,3.3,5.89,7.38,5.89h0c4.08,0,7.39,2.63,7.39,5.88h0c0,3.25-3.31,5.88-7.39,5.88H804.25c-4.08,0-7.38-2.63-7.38-5.88h0c0-3.25,3.3-5.88,7.38-5.88H819c4.08,0,7.39-2.64,7.39-5.89h0c0-3.24-3.31-5.88-7.39-5.88h0c-4.08,0-7.38-2.63-7.38-5.88h0c0-3.25,3.3-5.88,7.38-5.88h73.85C897,91.81,900.26,94.44,900.26,97.69Z"/><path id="パス_5-2" data-name="パス 5-2" class="cls-2" d="M1463.93,62h-73.85c-4.08,0-7.39,2.63-7.39,5.88s3.31,5.88,7.39,5.88h0c4.08,0,7.38,2.63,7.38,5.88h0c0,3.25-3.3,5.88-7.38,5.88H1373c-4.08,0-7.38,2.64-7.38,5.89h0c0,3.24,3.3,5.88,7.38,5.88h0c4.08,0,7.39,2.63,7.39,5.88S1377.09,109,1373,109H1326.7c-4.08,0-7.39-2.63-7.39-5.88h0c0-3.25,3.31-5.88,7.39-5.88h14.77c4.08,0,7.39-2.64,7.39-5.88s-3.31-5.89-7.39-5.89h-44.31c-4.08,0-7.39,2.64-7.39,5.89s3.31,5.88,7.39,5.88,7.38,2.63,7.38,5.88h0c0,3.25-3.3,5.88-7.38,5.88h-14.77c-4.08,0-7.39,2.64-7.39,5.88h0c0,3.25,3.31,5.89,7.39,5.89h65.29a9.36,9.36,0,0,0,1.18.08h0c4.08,0,7.39,2.63,7.39,5.88h0c0,3.25-3.31,5.88-7.39,5.88h-29.54c-4.08,0-7.39,2.64-7.39,5.88h0c0,3.25,3.31,5.89,7.39,5.89h73.86c4.08,0,7.38-2.64,7.38-5.89h0c0-3.24-3.3-5.88-7.38-5.88h-14.77c-4.08,0-7.39-2.63-7.39-5.88h0c0-3.25,3.31-5.88,7.39-5.88a9.36,9.36,0,0,0,1.18-.08h23c4.08,0,7.38-2.64,7.38-5.89h0c0-3.24-3.3-5.88-7.38-5.88h0c-4.08,0-7.39-2.63-7.39-5.88s3.31-5.88,7.39-5.88h17.06c4.08,0,7.39-2.64,7.39-5.88s-3.31-5.89-7.39-5.89h0c-4.08,0-7.38-2.63-7.38-5.88h0c0-3.25,3.3-5.88,7.38-5.88h44.31c4.08,0,7.38-2.63,7.38-5.88S1468,62,1463.93,62Z"/><path id="パス_10-2" data-name="パス 10-2" class="cls-2" d="M278.93,45H205.08c-4.08,0-7.39,2.63-7.39,5.88s3.31,5.88,7.39,5.88h0c4.08,0,7.38,2.63,7.38,5.88h0c0,3.25-3.3,5.88-7.38,5.88H188c-4.07,0-7.38,2.64-7.38,5.89h0c0,3.24,3.3,5.88,7.38,5.88h0c4.08,0,7.39,2.63,7.39,5.88S192.09,92,188,92H141.7c-4.08,0-7.39-2.63-7.39-5.88h0c0-3.25,3.31-5.88,7.39-5.88h14.77c4.08,0,7.39-2.64,7.39-5.88s-3.31-5.89-7.39-5.89H112.16c-4.08,0-7.39,2.64-7.39,5.89s3.31,5.88,7.39,5.88,7.38,2.63,7.38,5.88h0c0,3.25-3.3,5.88-7.38,5.88H97.39C93.31,92,90,94.66,90,97.9h0c0,3.25,3.31,5.89,7.39,5.89h65.29a9.36,9.36,0,0,0,1.18.08h0c4.08,0,7.39,2.63,7.39,5.88h0c0,3.25-3.31,5.88-7.39,5.88H134.32c-4.08,0-7.39,2.64-7.39,5.88h0c0,3.25,3.31,5.89,7.39,5.89h73.86c4.08,0,7.38-2.64,7.38-5.89h0c0-3.24-3.3-5.88-7.38-5.88H193.41c-4.08,0-7.39-2.63-7.39-5.88h0c0-3.25,3.31-5.88,7.39-5.88a9.36,9.36,0,0,0,1.18-.08h23c4.08,0,7.38-2.64,7.38-5.89h0c0-3.24-3.3-5.88-7.38-5.88h0c-4.08,0-7.39-2.63-7.39-5.88s3.31-5.88,7.39-5.88h17.06c4.08,0,7.39-2.64,7.39-5.88s-3.31-5.89-7.39-5.89h0c-4.08,0-7.38-2.63-7.38-5.88h0c0-3.25,3.3-5.88,7.38-5.88h44.31c4.08,0,7.38-2.63,7.38-5.88S283,45,278.93,45Z"/><path id="パス_18" data-name="パス 18" class="cls-2" d="M724.93,707H651.08c-4.08,0-7.39,2.63-7.39,5.88s3.31,5.88,7.39,5.88h0c4.08,0,7.38,2.63,7.38,5.88h0c0,3.25-3.3,5.88-7.38,5.88H634c-4.08,0-7.38,2.64-7.38,5.89h0c0,3.24,3.3,5.88,7.38,5.88h0c4.08,0,7.39,2.63,7.39,5.88S638.09,754,634,754H587.7c-4.08,0-7.39-2.63-7.39-5.88h0c0-3.25,3.31-5.88,7.39-5.88h14.77c4.08,0,7.39-2.64,7.39-5.88s-3.31-5.89-7.39-5.89H558.16c-4.08,0-7.39,2.64-7.39,5.89s3.31,5.88,7.39,5.88,7.38,2.63,7.38,5.88h0c0,3.25-3.3,5.88-7.38,5.88H543.39c-4.08,0-7.39,2.64-7.39,5.88h0c0,3.25,3.31,5.89,7.39,5.89h65.29a9.36,9.36,0,0,0,1.18.08h0c4.08,0,7.39,2.63,7.39,5.88h0c0,3.25-3.31,5.88-7.39,5.88H580.32c-4.08,0-7.39,2.64-7.39,5.88h0c0,3.25,3.31,5.89,7.39,5.89h73.86c4.08,0,7.38-2.64,7.38-5.89h0c0-3.24-3.3-5.88-7.38-5.88H639.41c-4.08,0-7.39-2.63-7.39-5.88h0c0-3.25,3.31-5.88,7.39-5.88a9.36,9.36,0,0,0,1.18-.08h23c4.08,0,7.38-2.64,7.38-5.89h0c0-3.24-3.3-5.88-7.38-5.88h0c-4.08,0-7.39-2.63-7.39-5.88s3.31-5.88,7.39-5.88h17.06c4.08,0,7.39-2.64,7.39-5.88s-3.31-5.89-7.39-5.89h0c-4.08,0-7.38-2.63-7.38-5.88h0c0-3.25,3.3-5.88,7.38-5.88h44.31c4.08,0,7.38-2.63,7.38-5.88S729,707,724.93,707Z"/><path id="パス_9-2" data-name="パス 9-2" class="cls-2" d="M1903.91,188.67h-73.85c-4.08,0-7.39,2.63-7.39,5.88s3.31,5.88,7.39,5.88h0c4.08,0,7.38,2.64,7.38,5.89h0c0,3.24-3.3,5.88-7.38,5.88H1813c-4.08,0-7.38,2.63-7.38,5.88h0c0,3.25,3.3,5.88,7.38,5.88h0c4.08,0,7.39,2.64,7.39,5.88s-3.31,5.89-7.39,5.89h-46.31c-4.08,0-7.39-2.64-7.39-5.89h0c0-3.24,3.31-5.88,7.39-5.88h14.77c4.08,0,7.39-2.63,7.39-5.88s-3.31-5.88-7.39-5.88h-44.31c-4.08,0-7.39,2.63-7.39,5.88s3.31,5.88,7.39,5.88,7.38,2.64,7.38,5.88h0c0,3.25-3.3,5.89-7.38,5.89h-14.77c-4.08,0-7.39,2.63-7.39,5.88h0c0,3.25,3.31,5.88,7.39,5.88h65.29a9.36,9.36,0,0,0,1.18.08h0c4.08,0,7.39,2.64,7.39,5.88h0c0,3.25-3.31,5.89-7.39,5.89H1759.3c-4.08,0-7.39,2.63-7.39,5.88h0c0,3.25,3.31,5.88,7.39,5.88h73.86c4.08,0,7.38-2.63,7.38-5.88h0c0-3.25-3.3-5.88-7.38-5.88h-14.77c-4.08,0-7.39-2.64-7.39-5.89h0c0-3.24,3.31-5.88,7.39-5.88a9.36,9.36,0,0,0,1.18-.08h23c4.08,0,7.38-2.63,7.38-5.88h0c0-3.25-3.3-5.88-7.38-5.88h0c-4.08,0-7.39-2.64-7.39-5.89s3.31-5.88,7.39-5.88h17.06c4.08,0,7.39-2.63,7.39-5.88s-3.31-5.88-7.39-5.88h0c-4.08,0-7.38-2.64-7.38-5.88h0c0-3.25,3.3-5.89,7.38-5.89h44.31c4.08,0,7.38-2.63,7.38-5.88S1908,188.67,1903.91,188.67Z"/></g></g></g></g></svg>