<svg xmlns="http://www.w3.org/2000/svg" width="1920" height="290" viewBox="0 0 1920 290">
  <g id="footer" transform="translate(0 -496.513)">
    <rect id="長方形_15" data-name="長方形 15" width="1920" height="290" transform="translate(0 496.513)" fill="#303030"/>
    <g id="グループ_6" data-name="グループ 6" transform="translate(1317.305 732.559)">
      <g id="グループ_4" data-name="グループ 4" transform="translate(-357.228 -91.08)" style="mix-blend-mode: screen;isolation: isolate">
        <path id="パス_4" data-name="パス 4" d="M86.4,137.34h0c0,3.249-3.307,5.882-7.386,5.882H34.7c-4.079,0-7.386,2.633-7.386,5.882h0c0,3.249,3.307,5.882,7.386,5.882h0c4.079,0,7.386,2.634,7.386,5.882h0c0,3.248-3.307,5.882-7.386,5.882H-9.61c-4.079,0-7.386-2.634-7.386-5.882h0c0-3.249,3.307-5.882,7.386-5.882H5.161c4.079,0,7.386-2.633,7.386-5.882h0c0-3.249-3.307-5.882-7.386-5.882h0c-4.079,0-7.386-2.634-7.386-5.882h0c0-3.248,3.307-5.882,7.386-5.882H79.01C83.089,131.458,86.4,134.092,86.4,137.34Z" transform="translate(16.996 -61.615)" fill="#161616"/>
        <path id="パス_11" data-name="パス 11" d="M86.4,137.34h0c0,3.249-3.307,5.882-7.386,5.882H34.7c-4.079,0-7.386,2.633-7.386,5.882h0c0,3.249,3.307,5.882,7.386,5.882h0c4.079,0,7.386,2.634,7.386,5.882h0c0,3.248-3.307,5.882-7.386,5.882H-9.61c-4.079,0-7.386-2.634-7.386-5.882h0c0-3.249,3.307-5.882,7.386-5.882H5.161c4.079,0,7.386-2.633,7.386-5.882h0c0-3.249-3.307-5.882-7.386-5.882h0c-4.079,0-7.386-2.634-7.386-5.882h0c0-3.248,3.307-5.882,7.386-5.882H79.01C83.089,131.458,86.4,134.092,86.4,137.34Z" transform="translate(-658.004 -152.615)" fill="#161616"/>
        <path id="パス_8" data-name="パス 8" d="M86.4,137.34h0c0,3.249-3.307,5.882-7.386,5.882H34.7c-4.079,0-7.386,2.633-7.386,5.882h0c0,3.249,3.307,5.882,7.386,5.882h0c4.079,0,7.386,2.634,7.386,5.882h0c0,3.248-3.307,5.882-7.386,5.882H-9.61c-4.079,0-7.386-2.634-7.386-5.882h0c0-3.249,3.307-5.882,7.386-5.882H5.161c4.079,0,7.386-2.633,7.386-5.882h0c0-3.249-3.307-5.882-7.386-5.882h0c-4.079,0-7.386-2.634-7.386-5.882h0c0-3.248,3.307-5.882,7.386-5.882H79.01C83.089,131.458,86.4,134.092,86.4,137.34Z" transform="translate(514.996 -170.615)" fill="#161616"/>
        <path id="パス_7" data-name="パス 7" d="M86.4,137.34h0c0,3.249-3.307,5.882-7.386,5.882H34.7c-4.079,0-7.386,2.633-7.386,5.882h0c0,3.249,3.307,5.882,7.386,5.882h0c4.079,0,7.386,2.634,7.386,5.882h0c0,3.248-3.307,5.882-7.386,5.882H-9.61c-4.079,0-7.386-2.634-7.386-5.882h0c0-3.249,3.307-5.882,7.386-5.882H5.161c4.079,0,7.386-2.633,7.386-5.882h0c0-3.249-3.307-5.882-7.386-5.882h0c-4.079,0-7.386-2.634-7.386-5.882h0c0-3.248,3.307-5.882,7.386-5.882H79.01C83.089,131.458,86.4,134.092,86.4,137.34Z" transform="translate(-225.004 -205.615)" fill="#161616"/>
        <path id="パス_5" data-name="パス 5" d="M537.33,0H463.48c-4.079,0-7.386,2.634-7.386,5.882s3.307,5.882,7.386,5.882h0c4.079,0,7.386,2.633,7.386,5.882h0c0,3.248-3.306,5.881-7.384,5.882H446.416c-4.079,0-7.386,2.634-7.386,5.882h0c0,3.248,3.306,5.882,7.386,5.882h0c4.079,0,7.386,2.634,7.386,5.882s-3.307,5.882-7.386,5.882H400.1c-4.079,0-7.386-2.634-7.386-5.882h0c0-3.248,3.307-5.882,7.386-5.882h14.772c4.079,0,7.386-2.634,7.386-5.882s-3.307-5.882-7.386-5.882H370.56c-4.079,0-7.385,2.634-7.385,5.882s3.306,5.882,7.385,5.882,7.386,2.634,7.386,5.882h0c0,3.249-3.307,5.882-7.386,5.882H355.788c-4.079,0-7.386,2.634-7.386,5.882h0c0,3.249,3.307,5.882,7.386,5.882h65.291a9.244,9.244,0,0,0,1.186.083h0c4.079,0,7.386,2.634,7.386,5.882h0c0,3.248-3.307,5.882-7.386,5.882H392.722c-4.079,0-7.386,2.634-7.386,5.882h0c0,3.249,3.307,5.882,7.386,5.882H466.58c4.079,0,7.386-2.634,7.386-5.882h0c0-3.248-3.307-5.882-7.386-5.882H451.808c-4.079,0-7.386-2.634-7.386-5.882h0c0-3.248,3.307-5.882,7.386-5.882a9.231,9.231,0,0,0,1.186-.083h22.965c4.079,0,7.386-2.633,7.386-5.882h0c0-3.248-3.307-5.882-7.386-5.882h0c-4.079,0-7.386-2.634-7.386-5.882s3.306-5.882,7.386-5.882h17.065c4.079,0,7.385-2.634,7.385-5.882s-3.306-5.882-7.385-5.882h0c-4.079,0-7.386-2.633-7.386-5.882h0c0-3.249,3.307-5.882,7.386-5.882H537.33c4.079,0,7.385-2.634,7.385-5.882S541.409,0,537.33,0Z" transform="translate(-112.268 -104)" fill="#161616"/>
        <path id="パス_10" data-name="パス 10" d="M537.33,0H463.48c-4.079,0-7.386,2.634-7.386,5.882s3.307,5.882,7.386,5.882h0c4.079,0,7.386,2.633,7.386,5.882h0c0,3.248-3.306,5.881-7.384,5.882H446.416c-4.079,0-7.386,2.634-7.386,5.882h0c0,3.248,3.306,5.882,7.386,5.882h0c4.079,0,7.386,2.634,7.386,5.882s-3.307,5.882-7.386,5.882H400.1c-4.079,0-7.386-2.634-7.386-5.882h0c0-3.248,3.307-5.882,7.386-5.882h14.772c4.079,0,7.386-2.634,7.386-5.882s-3.307-5.882-7.386-5.882H370.56c-4.079,0-7.385,2.634-7.385,5.882s3.306,5.882,7.385,5.882,7.386,2.634,7.386,5.882h0c0,3.249-3.307,5.882-7.386,5.882H355.788c-4.079,0-7.386,2.634-7.386,5.882h0c0,3.249,3.307,5.882,7.386,5.882h65.291a9.244,9.244,0,0,0,1.186.083h0c4.079,0,7.386,2.634,7.386,5.882h0c0,3.248-3.307,5.882-7.386,5.882H392.722c-4.079,0-7.386,2.634-7.386,5.882h0c0,3.249,3.307,5.882,7.386,5.882H466.58c4.079,0,7.386-2.634,7.386-5.882h0c0-3.248-3.307-5.882-7.386-5.882H451.808c-4.079,0-7.386-2.634-7.386-5.882h0c0-3.248,3.307-5.882,7.386-5.882a9.231,9.231,0,0,0,1.186-.083h22.965c4.079,0,7.386-2.633,7.386-5.882h0c0-3.248-3.307-5.882-7.386-5.882h0c-4.079,0-7.386-2.634-7.386-5.882s3.306-5.882,7.386-5.882h17.065c4.079,0,7.385-2.634,7.385-5.882s-3.306-5.882-7.385-5.882h0c-4.079,0-7.386-2.633-7.386-5.882h0c0-3.249,3.307-5.882,7.386-5.882H537.33c4.079,0,7.385-2.634,7.385-5.882S541.409,0,537.33,0Z" transform="translate(-1297.268 -121)" fill="#161616"/>
        <path id="パス_9" data-name="パス 9" d="M537.33,0H463.48c-4.079,0-7.386,2.634-7.386,5.882s3.307,5.882,7.386,5.882h0c4.079,0,7.386,2.633,7.386,5.882h0c0,3.248-3.306,5.881-7.384,5.882H446.416c-4.079,0-7.386,2.634-7.386,5.882h0c0,3.248,3.306,5.882,7.386,5.882h0c4.079,0,7.386,2.634,7.386,5.882s-3.307,5.882-7.386,5.882H400.1c-4.079,0-7.386-2.634-7.386-5.882h0c0-3.248,3.307-5.882,7.386-5.882h14.772c4.079,0,7.386-2.634,7.386-5.882s-3.307-5.882-7.386-5.882H370.56c-4.079,0-7.385,2.634-7.385,5.882s3.306,5.882,7.385,5.882,7.386,2.634,7.386,5.882h0c0,3.249-3.307,5.882-7.386,5.882H355.788c-4.079,0-7.386,2.634-7.386,5.882h0c0,3.249,3.307,5.882,7.386,5.882h65.291a9.244,9.244,0,0,0,1.186.083h0c4.079,0,7.386,2.634,7.386,5.882h0c0,3.248-3.307,5.882-7.386,5.882H392.722c-4.079,0-7.386,2.634-7.386,5.882h0c0,3.249,3.307,5.882,7.386,5.882H466.58c4.079,0,7.386-2.634,7.386-5.882h0c0-3.248-3.307-5.882-7.386-5.882H451.808c-4.079,0-7.386-2.634-7.386-5.882h0c0-3.248,3.307-5.882,7.386-5.882a9.231,9.231,0,0,0,1.186-.083h22.965c4.079,0,7.386-2.633,7.386-5.882h0c0-3.248-3.307-5.882-7.386-5.882h0c-4.079,0-7.386-2.634-7.386-5.882s3.306-5.882,7.386-5.882h17.065c4.079,0,7.385-2.634,7.385-5.882s-3.306-5.882-7.385-5.882h0c-4.079,0-7.386-2.633-7.386-5.882h0c0-3.249,3.307-5.882,7.386-5.882H537.33c4.079,0,7.385-2.634,7.385-5.882S541.409,0,537.33,0Z" transform="translate(374.732 29)" fill="#161616"/>
      </g>
    </g>
  </g>
</svg>
